<?xml version="1.0" encoding="utf-8"?>
<!-- Generator: Adobe Illustrator 22.0.0, SVG Export Plug-In . SVG Version: 6.00 Build 0)  -->
<svg version="1.1" id="圖層_1" xmlns="http://www.w3.org/2000/svg" xmlns:xlink="http://www.w3.org/1999/xlink" x="0px" y="0px"
	 viewBox="0 0 186.5 21" style="enable-background:new 0 0 186.5 21;" xml:space="preserve">
<style type="text/css">
	.st0{fill:#EAF0ED;}
	.st1{fill:none;stroke:#EAF0ED;stroke-miterlimit:10;}
</style>
<title>未命名-1</title>
<path class="st0" d="M10,0C4.5,0,0,4.5,0,10s4.5,10,10,10s10-4.5,10-10S15.5,0,10,0z M8,15l-5-5l1.4-1.4L8,12.2l7.6-7.6L17,6L8,15z"
	/>
<line class="st1" x1="20" y1="10" x2="83.5" y2="10"/>
<path class="st0" d="M93,0c-5.5,0-10,4.5-10,10s4.5,10,10,10s10-4.5,10-10S98.5,0,93,0z M91,15l-5-5l1.4-1.4l3.6,3.6l7.6-7.6L100,6
	L91,15z"/>
<line class="st1" x1="103" y1="10" x2="166.5" y2="10"/>
<circle class="st1" cx="176" cy="10.5" r="10"/>
<circle class="st0" cx="176" cy="10.5" r="7.4"/>
</svg>
